<svg width="270" height="24" viewBox="0 0 270 24" fill="none" xmlns="http://www.w3.org/2000/svg">
<path d="M43.9351 2.63544H60.8371C63.0022 2.63544 64.1818 2.82948 65.1623 3.30948C66.6942 4.09586 67.2967 5.35203 67.2967 7.74692C67.2967 10.1418 66.4542 11.4541 64.6874 11.7912C67.2405 12.2661 68.0576 13.3639 68.0576 16.0856C68.0576 18.4448 67.3835 19.9358 65.8925 20.7222C65.0244 21.1716 63.7886 21.3656 61.6235 21.3656H43.9351V2.63544ZM59.0703 10.1061C60.1631 10.1061 60.5563 10.0499 60.924 9.88138C61.17 9.70937 61.3664 9.47563 61.4936 9.20366C61.6207 8.93168 61.674 8.63105 61.6481 8.33195C61.6222 8.03286 61.5181 7.74584 61.3462 7.49974C61.1742 7.25363 60.9406 7.0571 60.6686 6.9299C60.0994 6.79051 59.5114 6.74394 58.9274 6.79202H49.4959V10.1061H59.0703ZM59.6882 17.209C60.2723 17.2605 60.8608 17.2139 61.4295 17.0711C61.7228 16.9446 61.9681 16.7278 62.1297 16.4523C62.2913 16.1768 62.3609 15.857 62.3282 15.5392C62.3667 15.2049 62.294 14.8673 62.1214 14.5784C61.9488 14.2895 61.6859 14.0655 61.3733 13.9409C61.0363 13.8286 60.8116 13.798 59.5452 13.798H49.4959V17.2243L59.6882 17.209Z" fill="white"/>
<path d="M95.0907 2.63544V6.89415H79.9554V10.1265H94.2226V13.8337H79.9554V17.1069H95.2745V21.3452H74.3384V2.63544H95.0907Z" fill="white"/>
<path d="M102.311 2.63544H108.01V16.7341H120.903V21.3656H102.311V2.63544Z" fill="white"/>
<path d="M129.569 7.26692H121.23V2.63544H143.632V7.26692H135.273V21.3656H129.569V7.26692Z" fill="white"/>
<path d="M154.447 2.63544L159.896 16.9026L164.726 2.63544H171.605L176.313 16.9026L181.93 2.63544H187.7L179.948 21.3656H172.289L168.142 7.88479L163.792 21.3656H156.219L148.667 2.63544H154.447Z" fill="white"/>
<path d="M198.699 2.63544H206.358L216.607 21.3656H210.377L208.483 18.026H196.427L194.629 21.3656H188.17L198.699 2.63544ZM206.507 14.1197L202.462 6.64904L198.474 14.1197H206.507Z" fill="white"/>
<path d="M226.268 14.8805L215.545 2.62524H222.817L229.138 10.3767L235.399 2.62524H242.548L231.988 14.8805V21.3656H226.268V14.8805Z" fill="white"/>
<path d="M252.183 15.3859C252.239 16.6779 252.377 16.9842 253.051 17.2396C254.31 17.4771 255.591 17.5713 256.871 17.5204C263.473 17.5204 264.26 17.3213 264.26 15.7791C264.291 15.4544 264.214 15.1284 264.041 14.8516C263.869 14.5747 263.61 14.3623 263.305 14.2472C262.687 14.0481 262.687 14.0481 259.73 14.0225H254.568C251.116 14.0225 249.681 13.8234 248.476 13.2055C247.128 12.5059 246.51 11.0149 246.51 8.46171C246.51 5.0915 247.465 3.6566 250.161 3.0132C251.693 2.62001 253.868 2.50256 257.969 2.50256C264.535 2.50256 266.057 2.67107 267.4 3.52384C268.743 4.3766 269.116 5.56638 269.116 8.35446H263.555C263.555 6.72553 262.993 6.50086 259.317 6.50086C257.489 6.50086 255.048 6.55703 254.149 6.6132C252.617 6.72554 252.106 7.12383 252.106 8.18596C252.082 8.54009 252.193 8.89023 252.417 9.16592C252.64 9.44161 252.96 9.6224 253.312 9.67191C253.649 9.75872 253.761 9.78425 255.615 9.81489H260.925C261.436 9.81489 263.958 9.89659 264.913 9.95276C268.488 10.1213 269.882 11.694 269.882 15.4574C269.882 18.9144 268.86 20.431 266.118 21.0183C264.714 21.3247 261.936 21.4983 257.861 21.4983C251.376 21.4983 249.941 21.3553 248.287 20.5127C247.138 19.951 246.546 18.5213 246.546 16.3C246.546 16.1315 246.546 15.7893 246.576 15.3757L252.183 15.3859Z" fill="white"/>
<path d="M15.217 13.4558H25.1897C25.8826 13.4551 26.5689 13.5911 27.2091 13.856C27.8494 14.1208 28.4312 14.5093 28.9211 14.9993C29.4111 15.4892 29.7996 16.071 30.0645 16.7113C30.3293 17.3516 30.4653 18.0378 30.4646 18.7307C30.4646 19.4232 30.3281 20.1088 30.063 20.7485C29.7978 21.3882 29.4092 21.9694 28.9193 22.4588C28.4295 22.9482 27.8479 23.3363 27.208 23.6008C26.568 23.8653 25.8822 24.0011 25.1897 24.0005H0L6.73531 17.0456C7.83675 15.9099 9.15503 15.0069 10.612 14.3903C12.069 13.7737 13.6349 13.4559 15.217 13.4558V13.4558Z" fill="white"/>
<path d="M15.217 10.5451H24.6791C25.372 10.5458 26.0582 10.4098 26.6985 10.145C27.3388 9.88015 27.9206 9.49162 28.4105 9.00167C28.9005 8.51172 29.289 7.92996 29.5538 7.28968C29.8187 6.6494 29.9547 5.96317 29.954 5.27027C29.954 4.5778 29.8175 3.89213 29.5524 3.25244C29.2872 2.61275 28.8986 2.03158 28.4087 1.54217C27.9188 1.05276 27.3373 0.664689 26.6973 0.400158C26.0574 0.135628 25.3716 -0.000180239 24.6791 0.000490756H0L6.73531 6.95537C7.83675 8.09106 9.15503 8.99401 10.612 9.61066C12.069 10.2273 13.6349 10.5451 15.217 10.5451Z" fill="white"/>
</svg>
